{"title":"Tees Maar Khan - (2010) (DVDScr) -1CDrip -XviD (mrsjs)","uid":6066466,"size":726586317,"categoryP":"video","categoryS":"movies","magnet":"?xt=urn:btih:d7db88eed9ca04537f48a21fd270d4741bd7b068&amp;dn=Tees+Maar+Khan+-+%282010%29+%28DVDScr%29+-1CDrip+-XviD+%28mrsjs%29&amp;tr=udp%3A%2F%2Ftracker.openbittorrent.com%3A80&amp;tr=udp%3A%2F%2Fopen.demonii.com%3A1337&amp;tr=udp%3A%2F%2Ftracker.coppersurfer.tk%3A6969&amp;tr=udp%3A%2F%2Fexodus.desync.com%3A6969","seeders":0,"leechers":0,"uploader":"mrsjs","files":5,"time":1293385128,"description":"                                        ***\n                                          *               \n                ***  ****       ****              ****    \n*** **** ****     **** **** *   * **** * ***      * **** * \n*** **** ***  *   **   ****   **  ****   ***    **  ****  \n **  **** ****    **         ****         **   ****       \n **   **   **     **           ***        *      ***      \n **   **   **     **             ***     *         ***    \n **   **   **     **               ***  ***          ***  \n **   **   **     **          ****  **   ***    ****  **  \n **   **   **     ***        * **** *     ***  * **** *   \n ***  ***  ***     ***          ****       ***    ****    \n  ***  ***  ***                             **            \n                                            ** \n\n\nTees Maar Khan - (2010) (DVDScr) -1CDrip -XviD (mrsjs)\n\n\nPlot :- Tees Maar Khan, adapted from an Italian movie After the Fox, revolves around a conman named Tabrez Mirza Khan (Akshay Kumar) who has been a criminal since youth. Two police officers Chatterjee (Murli Sharma) and Mukherjee (Aman Verma) are after him. He is in love with the struggling actress Anya (Katrina Kaif). He takes a job to rob a non-stop train loaded with precious antiques. He cons the people of Dhulia village into helping him by saying that he will make a historical film about their village. He fools the greedy actor Aatish Kapoor (Akshay Khanna) to work in his fake film. The robbery goes well but all the villagers and Tabrez Mirza Khan get arrested. He claims they are innocent. At the movie's premiere, Tabrez Mirza Khan is in handcuffs but eventually escapes as a rich man while Aatish receives an Oscar award for his role in the fake film.\n\nSpecial Thanks to DDR team for the RIP.\n\nFormat                           : AVI\nFormat/Info                      : Audio Video Interleave\nFile size                        : 693 MiB\nDuration                         : 2h 9mn\nOverall bit rate                 : 745 Kbps\nWriting application              : VirtualDubMod 1.5.10.2 (build 2540/release)\nWriting library                  : VirtualDubMod build 2540/release\n\nVideo\nID                               : 0\nFormat                           : MPEG-4 Visual\nFormat profile                   : Advanced Simple@L5\nFormat settings, BVOP            : Yes\nFormat settings, QPel            : No\nFormat settings, GMC             : No warppoints\nFormat settings, Matrix          : Custom\nCodec ID                         : XVID\nCodec ID/Hint                    : XviD\nDuration                         : 2h 9mn\nBit rate                         : 660 Kbps\nWidth                            : 624 pixels\nHeight                           : 288 pixels\nDisplay aspect ratio             : 2.2:1\nFrame rate                       : 25.000 fps\nColor space                      : YUV\nChroma subsampling               : 4:2:0\nBit depth                        : 8 bits\nScan type                        : Progressive\nCompression mode                 : Lossy\nBits/(Pixel*Frame)               : 0.147\nStream size                      : 614 MiB (89%)\nWriting library                  : XviD 1.2.1 (UTC 2008-12-04)\n\nAudio\nID                               : 1\nFormat                           : MPEG Audio\nFormat version                   : Version 2\nFormat profile                   : Layer 3\nMode                             : Joint stereo\nMode extension                   : Intensity Stereo + MS Stereo\nCodec ID                         : 55\nCodec ID/Hint                    : MP3\nDuration                         : 2h 9mn\nBit rate mode                    : Constant\nBit rate                         : 80.0 Kbps\nChannel(s)                       : 2 channels\nSampling rate                    : 24.0 KHz\nCompression mode                 : Lossy\nStream size                      : 74.3 MiB (11%)\nAlignment                        : Aligned on interleaves\nInterleave, duration             : 1000 ms (25.00 video frames)\nInterleave, preload duration     : 1008 ms\n\n\nScreens :-\n\n\n\nEnjoy ! mrsjs","torrent":{"xt":"urn:btih:d7db88eed9ca04537f48a21fd270d4741bd7b068","amp;dn":"Tees+Maar+Khan+-+%282010%29+%28DVDScr%29+-1CDrip+-XviD+%28mrsjs%29","amp;tr":["udp%3A%2F%2Ftracker.openbittorrent.com%3A80","udp%3A%2F%2Fopen.demonii.com%3A1337","udp%3A%2F%2Ftracker.coppersurfer.tk%3A6969","udp%3A%2F%2Fexodus.desync.com%3A6969"],"infoHash":"d7db88eed9ca04537f48a21fd270d4741bd7b068","infoHashBuffer":{"type":"Buffer","data":[215,219,136,238,217,202,4,83,127,72,162,31,210,112,212,116,27,215,176,104]},"announce":[],"urlList":[]}}